<?xml version="1.0" encoding="UTF-8"?>
<svg viewBox="0 0 315.489 286.841" xmlns="http://www.w3.org/2000/svg">
 <path d="m179.77 0h10.027c3.5808 2.9e-4 5.3713 1.7908 5.3716 5.3716l5.3716-2.5067 1.7905 1.7905 3.581-1.0743 2.5067 1.0743v-1.0743l3.581-3.581h12.892v2.8648l-2.8648 3.581v0.71621c-2.5e-4 1.194 1.7903 2.3876 5.3716 3.581v1.0743h-2.5067v0.71621l3.581 1.0743 1.7905-3.581 0.71621 0.71621h1.0743l5.3716-3.581 0.71621 1.0743h1.0743l1.7905-1.7905h6.0878c-2.7e-4 -1.9096 0.59657-2.8646 1.7905-2.8648h1.0743l0.71621 1.0743 1.0743-1.0743c3.5808 2.8e-4 5.3713 0.95522 5.3716 2.8648h0.71621c4.0582-3.1033 7.1618-4.6551 9.3107-4.6554l2.5067 2.8648h1.0743c-3e-4 -1.9096 0.59654-2.8645 1.7905-2.8648l0.7162 1.0743h1.0743l4.2972-2.8648h1.0743v1.7905c-2.8651 3.5813-7.6398 5.3718-14.324 5.3716l-6.4459 3.581h-1.7905l-6.4459-1.7905v1.0743l-1.7905 4.2972c-2.7e-4 6.4461 5.7294 11.221 17.189 14.324l5.3716 14.682 1.0743 0.71621 0.7162 2.8648h1.0743l0.71621-1.0743h1.0743c2.1483 2.4e-4 4.7744 4.5362 7.8783 13.608l1.0743-1.0743h0.71621l1.7905 3.581h4.6553l1.7905 1.7905-1.7905 2.8648v3.581c3.1032 2.2e-4 5.1325 3.82 6.0878 11.459l-1.7905 7.5202 3.581 6.0878h-0.7162l2.5067 7.1621-1.7905 1.7905 1.7905 1.7905v1.7905l-0.71621 5.3716 4.2972 7.1621v1.0743c-3.5814 4.0587-5.3719 9.1915-5.3716 15.398l1.7905 1.7905v0.71621l-1.7905 1.7905 1.7905 3.581c-2.8652 5.2523-4.6557 10.027-5.3716 14.324l1.0743 1.0743-7.1621 21.486c0.71589 7.1622 1.9096 10.743 3.581 10.743 5.7293 4.7748 10.265 11.101 13.608 18.979l1.7905 1.7905v0.71621c-2.6264 7e-5 -3.9395 0.59691-3.9391 1.7905 6.2068 2.1487 9.3104 3.7005 9.3107 4.6554l0.71621 12.534v30.797l-2.5067 0.7162c1.6708 2.8648 2.5064 6.804 2.5067 11.817v8.9526l-1.7905 1.7905h-1.7905l-5.3716-1.7905 1.0743-4.6553v-1.7905c-5.0138 4.0585-7.5205 6.804-7.5202 8.2364h-8.9526c-3.1039 0-5.4912-5.1328-7.1621-15.398h-1.7905v-0.71621l1.0743-4.6554-3.581-1.7905 2.5067-7.1621-0.7162-5.3716v-3.581c-3.1e-4 -2.1486 0.83527-4.2972 2.5067-6.4459v-3.581c-3e-4 -1.4324-2.3877-2.626-7.1621-3.581v1.7905c-3e-4 5.9684-0.59714 8.9526-1.7905 8.9526l1.0743 1.0743v0.71621c-2.1489 10.027-4.5363 16.712-7.1621 20.054l0.71621 2.5067-1.7905 1.7905c-2.9e-4 1.9099 1.1934 4.2972 3.581 7.1621h-1.7905v1.0743h1.0743l2.5067-1.0743v1.0743l1.0743 2.5067 3.581-1.7905 0.71621 1.0743v0.7162l-2.5067 4.6554h-94.539l-0.71621-1.0743-1.0743 1.0743h-7.1621l-5.3716-2.8648h-1.0743v1.0743h1.7905l-1.7905 1.7905-0.7162-1.0743-4.6554 1.0743h-0.71621l-1.0743-1.0743-0.71621 1.0743h-123.19l-1.0743-1.0743h-0.71621l1.7905-13.25c-1.4325 1e-5 -3.223-6.6846-5.3716-20.054v-2.5067l3.581-11.817-1.0743-0.71621v-1.0743c0.71615-10.266 1.6711-16.592 2.8648-18.979l-2.8648-11.459c1.1936 8e-5 2.7454-2.1485 4.6554-6.4459h-1.0743l2.8648-7.8783-1.0743-3.581v-1.7905c2.3873 1e-4 4.1778-2.1485 5.3716-6.4459l-0.71621-2.5067h0.71621c2.626-4.0584 4.5359-8.5944 5.7297-13.608l-1.7905-5.3716 3.581-3.581-1.7905-2.8648c-7.1e-5 -1.1935 0.8355-1.7904 2.5067-1.7905l-0.71621-0.7162v-1.7905l2.5067-2.8648 1.0743 1.0743c-7.6e-5 -2.3872 1.1936-3.5809 3.581-3.581l0.71621 0.71621 1.7905-13.608c-1.4325 1.6e-4 -2.2681-2.0291-2.5067-6.0878 4.5359-8.3556 8.1169-12.533 10.743-12.534l-1.0743-1.0743v-1.7905c-8.9e-5 -1.4322 1.1936-2.2678 3.581-2.5067v-1.0743h-4.2972l0.71621-0.71621-0.71621-1.0743v-0.7162l5.3716-4.6554c-1.1938-4.0583-2.7456-6.0876-4.6554-6.0878v-1.7905h1.0743l0.71621 0.71621h1.7905v-0.71621h-1.7905l1.7905-4.6554 1.0743 0.71621h0.71621c1.6711-5.252 3.2228-7.8781 4.6554-7.8783l-1.7905-2.8648c-9.7e-5 -1.1935 1.4323-1.7903 4.2972-1.7905l-7.8783-7.8783v-1.7905l3.581-1.0743 0.71621 3.581h1.7905c0.47737-2.3871 1.4323-3.5808 2.8648-3.581l2.5067 1.0743c3.8197-0.71598 5.7296-2.5065 5.7297-5.3716 0.47736-1.9097 2.2679-2.8646 5.3716-2.8648l3.581 1.0743 4.2972-3.581-0.71621-2.8648 0.71621 1.0743h1.0743l0.71621-2.8648-0.71621-0.71621v-1.7905l4.2972 0.71621v-0.71621c-1.3e-4 -2.8646 2.7453-4.7745 8.2364-5.7297v-4.2972c0.47733-1.9096 2.2678-2.8646 5.3716-2.8648l0.71621 1.0743c-1.4e-4 -1.1934 0.9548-1.7903 2.8648-1.7905l0.71621-2.8648-0.71621-0.71621v-2.8648l3.581-0.71621-1.0743-4.6554 2.8648-1.7905c-1.5e-4 1.194 1.5516 2.1489 4.6554 2.8648l0.71621-1.0743c1.4322 3.5813 2.6259 5.3718 3.581 5.3716h1.7905v-4.2972l1.7905-1.7905 1.0743 0.71621h0.71621c-1.7e-4 -2.3871 0.59667-3.5808 1.7905-3.581l1.0743 1.0743h0.7162c-1.7e-4 -2.6258 1.1935-4.1776 3.581-4.6554v-0.71621l-0.71621-1.0743v-0.71621c1.9097-3.5808 4.2971-5.3713 7.1621-5.3716l2.5067 2.5067c4.2971 2.8e-4 6.4457-1.1934 6.4459-3.581l0.71621-0.71621 1.0743 0.71621h0.71621l2.8648-0.71621 1.7905 1.7905h1.0743c-2e-4 -1.6709 1.4322-3.2226 4.2972-4.6554m8.2364 3.581 1.7905 1.7905v-1.7905h-1.7905m-22.561 78.067 0.7162 1.0743v0.7162l-0.7162 1.0743v0.71621c2.3872 0.95514 4.1777 2.5069 5.3716 4.6554l-1.7905 10.743h0.71621c1.1935 1.8e-4 1.7903-0.83539 1.7905-2.5067h2.8648v0.71621l-2.8648 7.1621 1.7905 1.7905-0.71621 1.0743 0.71621 0.71621v1.7905l-2.5067 10.027h0.71621c1.9097 1.6e-4 3.2227 1.4326 3.9391 4.2972l-1.0743 1.0743h-1.0743l-0.71621-2.8648h-1.0743l-0.71621 4.6554 4.6554 4.6553-1.0743 2.5067h-1.7905l-1.7905-4.2972c-3.5812 1.5e-4 -5.9686 1.7907-7.1621 5.3716v0.71621c2.3872 1.5e-4 3.5808 1.5519 3.581 4.6553l-1.0743 2.5067 1.0743-0.71621h2.5067l-0.71621 4.2972 0.71621-0.71621h1.0743v0.71621l0.71621-0.71621h1.0743c3.5808 1.4e-4 5.9682 2.0294 7.1621 6.0878l8.9526 3.581 1.7905-1.7905h1.7905l1.7905 1.7905 1.0743-0.71621h1.7905l2.5067 1.7905 1.0743-1.0743v-0.71621c8.1168 5.9685 13.488 8.9527 16.115 8.9526h1.7905c4.297-3.8196 6.4456-6.8038 6.4459-8.9526h-1.0743c-1.1939 1.3e-4 -1.7908 0.8357-1.7905 2.5067h-5.3716l-1.7905-1.7905v-0.71621l0.71621-1.0743v-0.71621c-5.4912 1.3e-4 -10.266-2.7453-14.324-8.2364l-3.581-1.7905h-0.71621v-1.7905h1.7905v-0.71621h-1.7905v-1.7905l0.71621 0.7162h1.0743v-3.581h2.5067l1.0743 1.0743h0.71621l-1.7905-4.6554 1.0743-0.71621h2.5067c5.252 5.2523 12.175 7.8784 20.77 7.8783v-0.7162c-1.9101-2.1485-12.414-7.6394-31.513-16.473l-3.581-2.5067-0.71621-1.0743v-0.7162l-5.3716 1.7905-1.7905-3.581 2.5067-1.0743v-3.581l-2.5067-0.7162 2.5067-3.581v1.7905h1.7905l-1.7905-2.8648c2.3872 1.8e-4 4.7745-2.0291 7.1621-6.0878 4.0583 1.4326 6.4456 3.2231 7.1621 5.3716l-1.7905 1.7905 10.743-1.0743h6.4459l0.71621 1.0743 1.0743-1.0743h0.71621c5.7294 3.5812 9.6686 5.3717 11.817 5.3716l-0.71621 1.0743v1.7905h2.5067l-0.71621-1.0743v-0.71621h3.581v-1.7905l-17.189-7.1621 2.8648-4.6553v-1.7905c-1.6714 1.9e-4 -4.4168-1.7903-8.2364-5.3716 5.9682-2.8646 10.146-4.297 12.534-4.2972h2.8648l7.1621 5.3716c-2.6e-4 -1.9097 0.59658-2.8646 1.7905-2.8648 4.7745 1.9e-4 7.7586 2.7456 8.9526 8.2364l1.7905 3.581-1.0743 5.3716c1.6709 1.8e-4 4.0582 5.9686 7.1621 17.905h1.7905v-1.7905h1.0743c0.23846 2.3875 1.074 3.5812 2.5067 3.581 3.1033-1.4323 4.6551-3.8196 4.6553-7.1621l-1.0743-1.0743v-0.7162l2.1486-8.2364-2.8648-6.0878-1.0743 0.71621h-0.71621l-1.7905-1.7905h1.7905v-1.7905h-1.7905v1.7905h-1.0743c-7.6398-3.1034-11.46-6.9232-11.459-11.459h0.71621l10.027 5.3716v-1.0743c-4.2975-4.7745-8.2366-7.1619-11.817-7.1621-3.5813-7.6393-5.3718-13.608-5.3716-17.905 0.95468-2.3871 1.9096-3.5808 2.8648-3.581l7.1621 0.71621 0.71621-0.71621h1.0743c1.6709 2.2e-4 7.4005 3.5812 17.189 10.743v-3.581l-2.8648-8.2364h1.0743c-2.8e-4 -5.4907-3.3426-12.056-10.027-19.696-13.608-11.937-26.858-18.502-39.75-19.696-18.383 2.6e-4 -27.574 4.775-27.574 14.324-0.95515 2.4e-4 -2.1488 3.5813-3.581 10.743-5.0136 11.46-8.9528 17.189-11.817 17.189l-7.1621 11.459m-57.655-34.736v0.71621h1.7905v-0.71621h-1.7905m98.12 0.71621c15.04 2.4e-4 22.56 4.1781 22.561 12.534 1.6709 2.3e-4 2.5065 0.59706 2.5067 1.7905v2.8648l-5.3716 6.0878 1.7905 1.7905v1.7905l-1.7905 1.7905-0.7162-0.71621h-1.0743c-2.4e-4 1.4326-3.3425 2.6263-10.027 3.581-13.608-2.6259-20.412-6.565-20.412-11.817h0.71621l16.115 6.4459c-2.3e-4 -1.4322-4.7749-4.1777-14.324-8.2364l-4.2972 2.8648c-4.2974-1.4322-6.4461-2.6259-6.4459-3.581v-1.0743l1.0743 1.0743h1.7905v-1.0743h-1.7905v-0.71621h2.5067l1.0743 0.71621s5.632-2.158 7.8783-2.5067 3.7147-0.67886 5.3716 0c2.2827 0.93528 5.6498 2.6412 7.2417 2.3824s2.2315-1.945 2.4122-2.7107 0.24868-1.5866 0.24868-1.5866c0-4.0586-8.2316-2.979-14.2-3.4567l-10.027 6.0878-1.7905-2.5067c0.95474 2.3e-4 1.9097-1.5516 2.8648-4.6554 5.9682-4.297 11.34-6.6844 16.115-7.1621m44.763 33.304v2.5067h1.7905v1.7905h-0.7162l-1.0743-0.71621h-1.7905v0.71621l12.534 4.6554v-1.7905c-2.8e-4 -2.6259-3.5813-5.0132-10.743-7.1621m-42.972 6.4459 1.7905 1.7905v0.71621c-11.937 6.6848-19.696 11.818-23.277 15.398l-3.581-1.0743 6.0878-5.3716-0.71621-0.71621v-1.0743l-1.0743 1.0743h-0.7162l-3.581-1.0743c-2e-4 -1.1935 0.83537-1.7903 2.5067-1.7905v-0.71621l-0.7162-1.0743v-0.7162l0.7162-1.0743h1.0743v1.7905l21.486-6.0878m-142.88 7.1621h0.71621l1.7905 1.7905v0.71621h-2.5067v-2.5067m113.16 3.581h1.7905v0.71621h-1.7905v-0.71621m-58.371 1.7905-1.0743 0.71621v7.1621h1.0743c-1.4e-4 -2.8646 0.5967-5.252 1.7905-7.1621l-1.0743-0.71621h-0.71621m-51.209 1.7905v1.7905h0.71621v-1.7905h-0.71621m98.837 1.7905v0.71621h1.7905l0.71621-2.5067h-0.71621l-1.7905 1.7905m10.743-1.7905v0.7162l-1.7905 1.7905v-0.71621l1.7905-1.7905m-64.817 1.7905c-1.3e-4 6.446 2.7453 10.266 8.2364 11.459h1.7905c1.671-0.4773 2.5066-2.2678 2.5067-5.3716v-0.71621h-3.581c-1.4e-4 2.3875-0.83572 3.5812-2.5067 3.581l-4.6553-8.9526h-1.7905m128.56 7.8783v1.7905h1.7905l-1.7905-1.7905m-44.047 11.817 4.6554-1.0743 0.71621 1.0743v0.71621l3.581-0.71621c13.369 1.91 20.054 7.2816 20.054 16.115 1.4322 1.4e-4 3.2227-2.984 5.3716-8.9526-2.6e-4 -7.1619-9.0722-12.892-27.216-17.189-5.2524 2.1488-7.8785 5.4911-7.8783 10.027h0.71621m45.121-8.9526-1.0743 5.3716 3.581 7.8783h1.0743v-4.2972l-1.7905-8.9526h-1.7905m-48.702 5.3716v1.7905h1.7905l-1.7905-1.7905m-12.534 5.3716 1.0743 2.5067-1.7905 1.7905 1.7905 3.9391c-0.47768 4.7749-1.4326 7.1622-2.8648 7.1621-1.1939 1.4e-4 -1.7907-1.1935-1.7905-3.581h-2.5067v-1.0743l1.7905-2.5067-1.0743-2.8648 5.3716-5.3716m67.323 2.5067v1.0743h2.8648v-1.0743h-2.8648m-78.067 10.027h1.7905v1.7905h-1.7905v-1.7905m4.6554 6.4459h0.7162v2.5067h-0.7162v-2.5067m54.79 2.5067c-1.9101 3.1037-3.7006 4.6555-5.3716 4.6553v0.71621l3.581 3.581c-2.5e-4 -1.671 1.7903-4.0584 5.3716-7.1621v-0.71621l-3.581-1.0743m-10.743 19.696v1.7905l1.7905-1.7905h-1.7905m-69.472 22.561-0.71621 6.4459h3.581v-1.0743h-1.7905v-1.7905l2.5067-0.71621-0.71621-2.8648h-2.8648m119.61 8.2364v2.5067h1.0743v-2.5067h-1.0743m-42.972 4.2972v3.581h0.71621v-3.581h-0.71621m-2.8648 4.6554 1.0743 0.7162v1.0743c-3.82 5.7297-9.3109 11.698-16.473 17.905l-0.71621-0.7162h-1.0743l-3.581 1.7905v0.7162l8.2364 8.9526 0.71621-3.581-0.71621-0.71621c6.4456-3.581 11.817-12.056 16.115-25.425v-0.7162h-3.581m-176.9 6.0878v1.7905h0.71621v-1.7905h-0.71621m61.952 0v1.7905h0.7162v-1.7905h-0.7162m-2.8648 4.6553v2.8648l1.7905 1.7905 1.7905-1.7905v-2.1486l-3.581-0.71621m-60.161 0.71621v2.1486h1.0743v-2.1486h-1.0743m210.21 0v2.8648l2.8648-0.71621v-2.1486h-2.8648m-150.05 4.6554v2.8648h1.7905c-1.3e-4 2.1487-1.1938 4.7748-3.581 7.8783h1.0743l9.6688-5.3716-0.71621-3.581h-1.0743v2.8648h-1.7905l-0.71621-4.6554-1.0743 1.0743h-0.7162l-2.8648-1.0743m200.54 0 1.7905 1.7905v-1.7905h-1.7905m-202.33 4.6554v1.7905h1.0743v-1.7905h-1.0743m95.256 3.581v0.71621h1.7905v-0.71621h-1.7905m-7.8783 5.3716h0.71621l3.581-1.7905v-1.0743h-0.7162l-3.581 2.8648m103.13 0 1.0743 0.7162h0.71621l1.0743-0.7162v-1.7905h-1.0743l-1.7905 1.7905m-48.344 0.7162v1.0743h1.7905v-1.0743h-1.7905m-204.12 1.7905v1.7905h0.71621v-1.7905h-0.71621m263.21 3.581v1.7905h1.0743v-1.7905h-1.0743m-7.8783 16.115-1.7905 4.6554 1.7905 11.817-1.7905 3.581c1.6708 1e-5 3.1032 1.1937 4.2972 3.581l-0.7162 0.7162v1.0743h0.7162c5.0131-4.536 7.5198-7.5202 7.5202-8.9526l-1.0743-2.8648 1.0743-0.71621h0.71621l-7.1621-12.892h-3.581m-172.61 4.6554v1.7905h0.71621v-1.7905h-0.71621m-123.19 3.581h1.7905v1.7905l-1.7905-1.7905m21.486 0h1.7905v1.0743h-1.7905v-1.0743m1.7905 1.7905 1.0743 1.0743v1.7905h-2.8648v-1.0743l1.7905-1.7905m-25.067 1.0743h1.7905c1.1936 2e-5 2.3873 4.7747 3.581 14.324 1.1936 0 1.7905 1.1937 1.7905 3.581h-1.7905c-1.6712 0-3.4617-4.7747-5.3716-14.324h1.7905v-1.7905h-1.7905v-1.7905m28.648 3.581v1.7905h1.0743v-1.7905l2.5067 3.581c-1.1937 7.1621-2.3874 10.743-3.581 10.743h-0.71621c-0.95499 0-1.9099-1.5518-2.8648-4.6554l1.0743-0.7162v-1.0743l-1.0743-7.1621 1.0743-0.7162h2.5067m192.66 0.7162v1.0743l0.71621 0.7162v1.0743l2.8648-1.0743-1.7905-1.7905h-1.7905m-203.4 0h1.7905v1.7905l-1.7905-1.7905m8.9526 1.7905v1.7905h1.7905v-1.7905h-1.7905m-9.6688 1.7905h1.7905c0.9549 1e-5 2.3873 2.7455 4.2972 8.2364l-1.7905 1.7905h-1.7905l-2.5067-2.8648 2.5067-0.7162c-4.1e-5 -2.1486-0.83562-4.2972-2.5067-6.4459m154.34 3.581v2.8648l3.9391-1.0743v-0.7162l-3.9391-1.0743m126.05 1.0743v2.5067h0.7162v-2.5067h-0.7162m-283.98 0.7162 0.71621 3.581h-0.71621l-1.7905-1.7905 1.7905-1.7905m266.07 0 0.7162 1.0743 1.0743-1.0743h4.2972v1.0743l-0.71621 2.5067 0.71621 1.0743h-1.7905v-1.7905h-0.71621l-2.8648 1.7905h-1.7905l1.0743-4.6554"/>
</svg>
